Coordinates
version=1
nRows=8
nColumns=28
inDegrees=yes

Units are S.I. units (second, meters, Newtons, ...)
Angles are in degrees.

endheader
time	pelvis_tilt	pelvis_list	pelvis_rotation	pelvis_tx	pelvis_ty	pelvis_tz	hip_flexion_r	hip_adduction_r	hip_rotation_r	knee_angle_r	ankle_angle_r	subtalar_angle_r	mtp_angle_r	hip_flexion_l	hip_adduction_l	hip_rotation_l	knee_angle_l	socket_flexion	socket_adduction	socket_rotation	socket_tx	socket_ty	socket_tz	foot_flex	lumbar_extension	lumbar_bending	lumbar_rotation
      0.31250000	      0.85303488	     -1.15398657	     -4.82939143	     -0.42914098	      1.02919563	      0.25720708	     14.85213199	      1.78822583	     -2.56972137	    -65.89192988	      8.30174102	    -16.02639853	     -5.17000884	     -0.22657692	      2.49549028	      9.73428238	     -4.48146228	      0.00000000	      0.00000000	      0.00000000	      0.00000000	      0.00000000	      0.00000000	      0.18535666	     -9.91971281	     -1.97010829	      3.50778598
      0.31666667	      0.89034197	     -1.17433545	     -4.75937860	     -0.42414606	      1.02962929	      0.25717865	     15.41913150	      1.79524626	     -2.61638285	    -65.59391085	      8.36832045	    -16.00929752	     -5.15600937	     -0.57938747	      2.49884138	      9.72606540	     -4.46643126	      0.00000000	      0.00000000	      0.00000000	      0.00000000	      0.00000000	      0.00000000	      0.23813831	    -10.03343325	     -1.96011455	      3.49735874
      0.32083333	      0.88693165	     -1.53275483	     -4.46718275	     -0.41850790	      1.03013806	      0.25675770	     15.81834531	      2.07925223	     -2.99399783	    -65.07083602	      9.22444443	    -15.13652580	     -4.94104630	     -1.02896743	      2.11671024	     10.03805108	     -4.28387296	      0.00000000	      0.00000000	      0.00000000	      0.00000000	      0.00000000	      0.00000000	      0.40406568	     -9.99910598	     -1.45287467	      3.20361909
      0.32500000	      0.92997116	     -1.69354516	     -4.25924532	     -0.41328643	      1.03055944	      0.25649890	     16.27242183	      2.16968267	     -3.23744727	    -64.62558935	      9.72154065	    -14.66610909	     -4.86246076	     -1.44046580	      1.95528233	     10.22338656	     -4.19769718	      0.00000000	      0.00000000	      0.00000000	      0.00000000	      0.00000000	      0.00000000	      0.50480283	    -10.08101967	     -1.21597653	      2.98207816
      0.32916667	      0.95852543	     -1.70623636	     -4.19517864	     -0.40837050	      1.03089192	      0.25654975	     16.82406934	      2.16281364	     -3.28950551	    -64.23646454	      9.80641138	    -14.64489911	     -4.85023495	     -1.78573283	      1.95645537	     10.21692345	     -4.16667692	      0.00000000	      0.00000000	      0.00000000	      0.00000000	      0.00000000	      0.00000000	      0.56696558	    -10.18849356	     -1.21281495	      2.96591213
      0.33333333	      1.03623044	     -2.02742516	     -3.79085456	     -0.40279745	      1.03144478	      0.25596032	     17.07647759	      2.33304447	     -3.79165971	    -63.54195341	     10.66506279	    -13.69458553	     -4.81827078	     -2.28334926	      1.61318976	     10.62580702	     -4.01672892	      0.00000000	      0.00000000	      0.00000000	      0.00000000	      0.00000000	      0.00000000	      0.70586488	    -10.25095007	     -0.73610854	      2.45998721
      0.33750000	      1.03413786	     -2.13056991	     -3.70062100	     -0.39754114	      1.03173597	      0.25599257	     17.55390826	      2.41949931	     -3.89665858	    -62.98163299	     10.94278497	    -13.62364523	     -4.79438220	     -2.66550030	      1.50360941	     10.65162907	     -3.89992873	      0.00000000	      0.00000000	      0.00000000	      0.00000000	      0.00000000	      0.00000000	      0.82206337	    -10.24331682	     -0.61583816	      2.43693765
      0.34166667	      1.01471949	     -2.38901158	     -3.52237497	     -0.39229531	      1.03206775	      0.25584814	     17.98161977	      2.65570293	     -4.09203776	    -62.29828262	     11.39577050	    -13.35170877	     -4.75720391	     -3.02384033	      1.21585151	     10.79327110	     -3.79855283	      0.00000000	      0.00000000	      0.00000000	      0.00000000	      0.00000000	      0.00000000	      0.91902160	    -10.24427569	     -0.27621386	      2.35462697
